<?xml version="1.0" encoding="utf-8"?>
<!DOCTYPE svg PUBLIC "-//W3C//DTD SVG 1.1//EN" "http://www.w3.org/Graphics/SVG/1.1/DTD/svg11.dtd">
<svg style="width:5px;height:5px;" version="1.1" id="图形" xmlns="http://www.w3.org/2000/svg" xmlns:xlink="http://www.w3.org/1999/xlink" x="0px" y="0px" width="15px" height="15px" viewBox="0 0 1024 1024" enable-background="new 0 0 1024 1024" xml:space="preserve">
  <path class="svgpath" data-index="path_0" fill="#a9b7b7" d="M894.624 1024 130.368 1024C60 1024 2.976 966.976 2.976 896.608L2.976 132.352C2.976 62.016 60 4.992 130.368 4.992L321.44 4.992C391.776 4.992 448.8 62.016 448.8 132.352L894.624 132.352C964.992 132.352 1022.016 189.376 1022.016 259.744L1022.016 896.608C1022.016 966.976 964.992 1024 894.624 1024ZM958.336 259.744C958.336 224.576 929.792 196.032 894.624 196.032L385.12 196.032 385.12 132.352C385.12 97.184 356.608 68.672 321.44 68.672L130.368 68.672C95.2 68.672 66.688 97.184 66.688 132.352L66.688 323.424 958.336 323.424 958.336 259.744ZM958.336 387.104 66.688 387.104 66.688 896.608C66.688 931.808 95.2 960.32 130.368 960.32L894.624 960.32C929.792 960.32 958.336 931.808 958.336 896.608L958.336 387.104Z" />

</svg>
