<?xml version="1.0" encoding="utf-8"?>
<!DOCTYPE svg PUBLIC "-//W3C//DTD SVG 1.1//EN" "http://www.w3.org/Graphics/SVG/1.1/DTD/svg11.dtd">
<svg style="width:308px;height:308px;" version="1.1" id="图形" xmlns="http://www.w3.org/2000/svg" xmlns:xlink="http://www.w3.org/1999/xlink" x="0px" y="0px" width="15px" height="15px" viewBox="0 0 1024 1024" enable-background="new 0 0 1024 1024" xml:space="preserve">
  <path class="svgpath" data-index="path_0" fill="#7dc5eb" d="M799.103998 1023.999995 225.888002 1023.999995C155.552002 1023.999995 98.528002 966.975995 98.528002 896.607995L98.528002 132.351999C98.528002 62.016 155.552002 4.992 225.888002 4.992L608.031999 4.992C650.655999 4.32 667.615999 5.888 671.711999 5.888L671.711999 4.992 926.463998 259.743999C926.463998 306.495998 926.463998 313.471998 926.463998 323.423998L926.463998 896.607995C926.463998 966.975995 869.439998 1023.999995 799.103998 1023.999995ZM671.711999 68.672C671.711999 144.479999 671.711999 196.031999 671.711999 196.031999 671.711999 231.199999 700.223999 259.743999 735.423999 259.743999L862.783998 259.743999 671.711999 68.672ZM862.783998 323.423998C788.639999 323.423998 735.423999 323.423998 735.423999 323.423998 665.055999 323.423998 608.031999 266.399999 608.031999 196.031999 608.031999 196.031999 606.559999 144.927999 607.135999 68.672L225.888002 68.672C190.720002 68.672 162.208002 97.183999 162.208002 132.351999L162.208002 896.607995C162.208002 931.807995 190.720002 960.319995 225.888002 960.319995L799.103998 960.319995C834.271998 960.319995 862.783998 931.807995 862.783998 896.607995L862.783998 323.423998ZM703.551999 769.247996 321.440001 769.247996C303.840001 769.247996 289.600001 754.975996 289.600001 737.407996 289.600001 719.807996 303.840001 705.535996 321.440001 705.535996L703.551999 705.535996C721.151999 705.535996 735.423999 719.807996 735.423999 737.407996 735.423999 754.975996 721.151999 769.247996 703.551999 769.247996ZM703.551999 578.175997 321.440001 578.175997C303.840001 578.175997 289.600001 563.903997 289.600001 546.335997 289.600001 528.735997 303.840001 514.495997 321.440001 514.495997L703.551999 514.495997C721.151999 514.495997 735.423999 528.735997 735.423999 546.335997 735.423999 563.903997 721.151999 578.175997 703.551999 578.175997Z" />

</svg>
