<?xml version="1.0" encoding="utf-8"?>
<!DOCTYPE svg PUBLIC "-//W3C//DTD SVG 1.1//EN" "http://www.w3.org/Graphics/SVG/1.1/DTD/svg11.dtd">
<svg style="width:308px;height:308px;" version="1.1" id="图形" xmlns="http://www.w3.org/2000/svg" xmlns:xlink="http://www.w3.org/1999/xlink" x="0px" y="0px" width="15px" height="15px" viewBox="0 0 1024 1024" enable-background="new 0 0 1024 1024" xml:space="preserve">
  <path class="svgpath" data-index="path_0" fill="#a9b7b7" d="M894.624 928.48C894.624 928.48 723.072 976.224 544.064 1024 522.624 1024 501.056 1024 479.584 1024 302.08 976.224 130.368 928.48 130.368 928.48 63.008 906.56 2.976 871.424 2.976 801.088L2.976 132.352C2.976 62.016 60 4.96 130.368 4.96 130.368 4.96 320 57.728 479.584 100.512 500.608 100.512 521.76 101.344 542.752 100.512 710.304 55.712 894.624 4.96 894.624 4.96 964.96 4.96 1022.016 62.016 1022.016 132.352L1022.016 801.088C1022.016 871.424 960 911.552 894.624 928.48ZM130.368 68.672C95.2 68.672 66.688 97.184 66.688 132.352L66.688 801.088C66.688 836.256 94.208 854.816 130.368 864.768 130.368 864.768 306.72 913.504 480.64 960.224L480.64 164.192 130.368 68.672ZM958.304 132.352C958.304 97.184 929.792 68.672 894.624 68.672L544.352 164.192 544.352 959.552C721.28 913.024 894.624 864.768 894.624 864.768 928.8 853.824 958.304 836.256 958.304 801.088L958.304 132.352Z" />

</svg>
